<svg width="180" height="178" viewBox="0 0 180 178" fill="none" xmlns="http://www.w3.org/2000/svg">
<ellipse cx="88.7552" cy="88.9594" rx="72.4515" ry="72.1557" fill="#050760"/>
<g filter="url(#filter0_d_0_1)">
<path d="M46.0864 25.0725C61.6758 13.8652 80.6451 8.46601 99.4424 9.88594C118.24 11.3059 135.576 19.4476 148.205 32.7865C160.834 46.1255 167.89 63.7469 168.051 82.3514C168.213 100.956 161.469 119.267 149.082 133.858C136.696 148.448 119.516 158.316 100.759 161.614C82.003 164.912 62.9565 161.414 47.1861 151.775C31.4158 142.136 20.0032 127.017 15.0851 109.249C10.1671 91.4809 12.0809 72.2822 20.4683 55.2477L90.2336 86.2433L46.0864 25.0725Z" fill="#F0F0F4"/>
</g>
<path d="M71.4286 97.02C71.9578 97.0242 72.4871 97.125 73.0164 97.3224C73.5456 97.5199 74.0287 97.8475 74.4656 98.3054C74.9024 98.759 75.2532 99.3786 75.5178 100.164C75.7825 100.95 75.9148 101.935 75.9148 103.119C75.9148 104.266 75.8056 105.285 75.5871 106.175C75.3729 107.061 75.0621 107.809 74.6546 108.418C74.2513 109.027 73.7599 109.489 73.1802 109.804C72.6047 110.119 71.9536 110.277 71.2269 110.277C70.5044 110.277 69.8596 110.134 69.2926 109.849C68.7297 109.559 68.2676 109.158 67.9064 108.645C67.5493 108.128 67.3204 107.53 67.2196 106.849H68.757C68.8956 107.442 69.1708 107.931 69.5824 108.317C69.9983 108.7 70.5464 108.891 71.2269 108.891C72.2225 108.891 73.008 108.456 73.5835 107.587C74.1631 106.717 74.453 105.488 74.453 103.901H74.3522C74.1169 104.253 73.8376 104.558 73.5141 104.814C73.1907 105.07 72.8316 105.268 72.4367 105.406C72.0418 105.545 71.6218 105.614 71.1765 105.614C70.4372 105.614 69.7588 105.432 69.1413 105.066C68.5281 104.697 68.0366 104.19 67.6669 103.548C67.3015 102.901 67.1188 102.162 67.1188 101.33C67.1188 100.54 67.2952 99.8176 67.648 99.1623C68.0051 98.5028 68.505 97.9777 69.1476 97.5871C69.7945 97.1964 70.5548 97.0074 71.4286 97.02ZM71.4286 98.4062C70.8993 98.4062 70.4225 98.5385 69.9983 98.8032C69.5782 99.0636 69.2443 99.4164 68.9964 99.8617C68.7528 100.303 68.631 100.792 68.631 101.33C68.631 101.867 68.7486 102.357 68.9838 102.798C69.2233 103.235 69.5488 103.583 69.9605 103.844C70.3763 104.1 70.8489 104.228 71.3782 104.228C71.7772 104.228 72.149 104.15 72.4934 103.995C72.8379 103.835 73.1382 103.619 73.3944 103.346C73.6549 103.069 73.8586 102.756 74.0056 102.407C74.1526 102.054 74.2261 101.687 74.2261 101.305C74.2261 100.801 74.1043 100.328 73.8607 99.8869C73.6213 99.4458 73.2894 99.0888 72.8652 98.8158C72.4451 98.5427 71.9662 98.4062 71.4286 98.4062ZM82.5007 97.02C83.03 97.0242 83.5593 97.125 84.0886 97.3224C84.6178 97.5199 85.1009 97.8475 85.5378 98.3054C85.9746 98.759 86.3254 99.3786 86.59 100.164C86.8546 100.95 86.9869 101.935 86.9869 103.119C86.9869 104.266 86.8777 105.285 86.6593 106.175C86.4451 107.061 86.1342 107.809 85.7268 108.418C85.3235 109.027 84.8321 109.489 84.2524 109.804C83.6769 110.119 83.0258 110.277 82.2991 110.277C81.5766 110.277 80.9318 110.134 80.3647 109.849C79.8019 109.559 79.3398 109.158 78.9786 108.645C78.6215 108.128 78.3926 107.53 78.2918 106.849H79.8292C79.9678 107.442 80.2429 107.931 80.6546 108.317C81.0704 108.7 81.6186 108.891 82.2991 108.891C83.2946 108.891 84.0802 108.456 84.6556 107.587C85.2353 106.717 85.5252 105.488 85.5252 103.901H85.4243C85.1891 104.253 84.9098 104.558 84.5863 104.814C84.2629 105.07 83.9037 105.268 83.5089 105.406C83.114 105.545 82.694 105.614 82.2487 105.614C81.5094 105.614 80.831 105.432 80.2135 105.066C79.6002 104.697 79.1088 104.19 78.7391 103.548C78.3737 102.901 78.191 102.162 78.191 101.33C78.191 100.54 78.3674 99.8176 78.7202 99.1623C79.0773 98.5028 79.5771 97.9777 80.2198 97.5871C80.8667 97.1964 81.627 97.0074 82.5007 97.02ZM82.5007 98.4062C81.9715 98.4062 81.4947 98.5385 81.0704 98.8032C80.6504 99.0636 80.3164 99.4164 80.0686 99.8617C79.825 100.303 79.7032 100.792 79.7032 101.33C79.7032 101.867 79.8208 102.357 80.056 102.798C80.2954 103.235 80.621 103.583 81.0326 103.844C81.4485 104.1 81.9211 104.228 82.4503 104.228C82.8494 104.228 83.2211 104.15 83.5656 103.995C83.91 103.835 84.2104 103.619 84.4666 103.346C84.727 103.069 84.9308 102.756 85.0778 102.407C85.2248 102.054 85.2983 101.687 85.2983 101.305C85.2983 100.801 85.1765 100.328 84.9329 99.8869C84.6934 99.4458 84.3616 99.0888 83.9373 98.8158C83.5173 98.5427 83.0384 98.4062 82.5007 98.4062ZM101.033 107.681V107.001C101.033 106.53 101.13 106.1 101.323 105.709C101.52 105.314 101.806 104.999 102.18 104.764C102.558 104.524 103.016 104.405 103.553 104.405C104.1 104.405 104.557 104.524 104.927 104.764C105.297 104.999 105.576 105.314 105.765 105.709C105.954 106.1 106.049 106.53 106.049 107.001V107.681C106.049 108.152 105.952 108.584 105.759 108.979C105.57 109.37 105.288 109.685 104.914 109.924C104.545 110.159 104.091 110.277 103.553 110.277C103.007 110.277 102.547 110.159 102.174 109.924C101.8 109.685 101.516 109.37 101.323 108.979C101.13 108.584 101.033 108.152 101.033 107.681ZM102.319 107.001V107.681C102.319 108.072 102.411 108.422 102.596 108.733C102.781 109.04 103.1 109.193 103.553 109.193C103.995 109.193 104.305 109.04 104.486 108.733C104.671 108.422 104.763 108.072 104.763 107.681V107.001C104.763 106.61 104.675 106.261 104.499 105.955C104.322 105.644 104.007 105.488 103.553 105.488C103.112 105.488 102.795 105.644 102.602 105.955C102.413 106.261 102.319 106.61 102.319 107.001ZM94.6063 100.296V99.616C94.6063 99.1455 94.7029 98.7149 94.8961 98.3243C95.0935 97.9294 95.3792 97.6144 95.753 97.3792C96.1311 97.1397 96.5889 97.02 97.1266 97.02C97.6727 97.02 98.1305 97.1397 98.5002 97.3792C98.8698 97.6144 99.1492 97.9294 99.3382 98.3243C99.5272 98.7149 99.6217 99.1455 99.6217 99.616V100.296C99.6217 100.767 99.5251 101.2 99.3319 101.594C99.1429 101.985 98.8614 102.3 98.4876 102.54C98.1179 102.775 97.6643 102.892 97.1266 102.892C96.5805 102.892 96.1206 102.775 95.7467 102.54C95.3729 102.3 95.0893 101.985 94.8961 101.594C94.7029 101.2 94.6063 100.767 94.6063 100.296ZM95.8916 99.616V100.296C95.8916 100.687 95.984 101.038 96.1689 101.349C96.3537 101.655 96.6729 101.809 97.1266 101.809C97.5677 101.809 97.8785 101.655 98.0591 101.349C98.244 101.038 98.3364 100.687 98.3364 100.296V99.616C98.3364 99.2253 98.2482 98.8767 98.0717 98.57C97.8953 98.2592 97.5803 98.1038 97.1266 98.1038C96.6855 98.1038 96.3684 98.2592 96.1752 98.57C95.9861 98.8767 95.8916 99.2253 95.8916 99.616ZM95.0851 110.101L103.957 97.1964H105.393L96.5217 110.101H95.0851Z" fill="#303030"/>
<defs>
<filter id="filter0_d_0_1" x="0.584034" y="0.20004" width="179.299" height="176.818" filterUnits="userSpaceOnUse" color-interpolation-filters="sRGB">
<feFlood flood-opacity="0" result="BackgroundImageFix"/>
<feColorMatrix in="SourceAlpha" type="matrix" values="0 0 0 0 0 0 0 0 0 0 0 0 0 0 0 0 0 0 127 0" result="hardAlpha"/>
<feOffset dy="2.36576"/>
<feGaussianBlur stdDeviation="5.9144"/>
<feComposite in2="hardAlpha" operator="out"/>
<feColorMatrix type="matrix" values="0 0 0 0 0 0 0 0 0 0 0 0 0 0 0 0 0 0 0.25 0"/>
<feBlend mode="normal" in2="BackgroundImageFix" result="effect1_dropShadow_0_1"/>
<feBlend mode="normal" in="SourceGraphic" in2="effect1_dropShadow_0_1" result="shape"/>
</filter>
</defs>
</svg>
