<svg width="181" height="181" viewBox="0 0 181 181" fill="none" xmlns="http://www.w3.org/2000/svg">
<g filter="url(#filter0_d_0_1)">
<ellipse cx="90.2067" cy="87.7645" rx="78.3659" ry="78.0701" fill="white"/>
</g>
<path d="M92.058 90.7458C91.2263 90.7458 90.4849 90.6029 89.8338 90.3173C89.1869 90.0317 88.6724 89.6347 88.2901 89.1264C87.9121 88.614 87.7062 88.0196 87.6726 87.3433H89.2605C89.2941 87.7592 89.4369 88.1183 89.6889 88.4207C89.9409 88.719 90.2707 88.95 90.6781 89.1138C91.0856 89.2777 91.5372 89.3596 92.0328 89.3596C92.5873 89.3596 93.0788 89.263 93.5072 89.0697C93.9357 88.8765 94.2717 88.6077 94.5154 88.2632C94.759 87.9188 94.8808 87.5197 94.8808 87.0661C94.8808 86.5914 94.7632 86.1734 94.528 85.8122C94.2927 85.4467 93.9483 85.1611 93.4946 84.9553C93.041 84.7494 92.4865 84.6465 91.8312 84.6465H90.7979V83.2603H91.8312C92.3437 83.2603 92.7931 83.1679 93.1796 82.9831C93.5702 82.7983 93.8748 82.5378 94.0932 82.2018C94.3158 81.8658 94.4272 81.4709 94.4272 81.0172C94.4272 80.5804 94.3305 80.2002 94.1373 79.8768C93.9441 79.5533 93.6711 79.3013 93.3182 79.1207C92.9696 78.9401 92.5579 78.8497 92.0832 78.8497C91.638 78.8497 91.2179 78.9317 90.8231 79.0955C90.4324 79.2551 90.1132 79.4882 89.8653 79.7949C89.6175 80.0973 89.4831 80.4628 89.4621 80.8912H87.9499C87.9751 80.2149 88.1788 79.6226 88.5611 79.1144C88.9433 78.6019 89.4432 78.2029 90.0607 77.9172C90.6823 77.6316 91.3649 77.4888 92.1084 77.4888C92.9066 77.4888 93.5912 77.6505 94.1625 77.9739C94.7338 78.2932 95.1728 78.7153 95.4794 79.2404C95.786 79.7655 95.9394 80.3325 95.9394 80.9416C95.9394 81.6683 95.7482 82.2879 95.366 82.8004C94.9879 83.3128 94.4734 83.6678 93.8223 83.8652V83.966C94.6372 84.1005 95.2736 84.447 95.7314 85.0057C96.1893 85.5602 96.4182 86.2469 96.4182 87.0661C96.4182 87.7676 96.2271 88.3976 95.8449 88.9563C95.4668 89.5108 94.9501 89.9477 94.2948 90.2669C93.6395 90.5861 92.8939 90.7458 92.058 90.7458Z" fill="#303030"/>
<defs>
<filter id="filter0_d_0_1" x="0.0120125" y="0.23129" width="180.389" height="179.798" filterUnits="userSpaceOnUse" color-interpolation-filters="sRGB">
<feFlood flood-opacity="0" result="BackgroundImageFix"/>
<feColorMatrix in="SourceAlpha" type="matrix" values="0 0 0 0 0 0 0 0 0 0 0 0 0 0 0 0 0 0 127 0" result="hardAlpha"/>
<feOffset dy="2.36576"/>
<feGaussianBlur stdDeviation="5.9144"/>
<feComposite in2="hardAlpha" operator="out"/>
<feColorMatrix type="matrix" values="0 0 0 0 0 0 0 0 0 0 0 0 0 0 0 0 0 0 0.25 0"/>
<feBlend mode="normal" in2="BackgroundImageFix" result="effect1_dropShadow_0_1"/>
<feBlend mode="normal" in="SourceGraphic" in2="effect1_dropShadow_0_1" result="shape"/>
</filter>
</defs>
</svg>
